<svg width="782" height="110" viewBox="0 0 782 110" fill="none" xmlns="http://www.w3.org/2000/svg">
<rect width="782" height="109.538" fill="#E2D9D3"/>
<g clip-path="url(#clip0_2224_4173)">
<path d="M523.38 34H0V84.8497C0.302682 84.8497 0.562123 84.8497 0.864805 84.8497C17.5555 84.8497 25.9874 91.26 34.1598 97.4105C42.3754 103.648 50.1587 109.538 66.1143 109.538C82.0268 109.538 89.81 103.648 98.0689 97.4105C106.241 91.2167 114.673 84.8497 131.364 84.8497C148.055 84.8497 156.486 91.26 164.659 97.4105C172.875 103.648 180.658 109.538 196.613 109.538C212.569 109.538 220.309 103.648 228.568 97.4105C236.74 91.2167 245.172 84.8497 261.863 84.8497C278.554 84.8497 286.986 91.26 295.158 97.4105C303.374 103.648 311.157 109.538 327.113 109.538C343.025 109.538 350.808 103.648 359.067 97.4105C367.239 91.2167 375.671 84.8497 392.362 84.8497C409.053 84.8497 417.485 91.26 425.657 97.4105C433.873 103.648 441.656 109.538 457.612 109.538C473.524 109.538 481.307 103.648 489.566 97.4105C497.739 91.2167 506.17 84.8497 522.861 84.8497C523.121 84.8497 523.337 84.8497 523.596 84.8497C539.811 85.0229 548.113 91.3466 556.156 97.4105C564.372 103.648 572.155 109.538 588.111 109.538C604.023 109.538 611.806 103.648 620.065 97.4105C628.238 91.2167 636.669 84.8497 653.36 84.8497C670.051 84.8497 678.483 91.26 686.655 97.4105C694.871 103.648 702.654 109.538 718.61 109.538C734.565 109.538 742.305 103.648 750.564 97.4105C758.477 91.4333 766.65 85.2395 782.303 84.8497V34H523.38Z" fill="#D4CAC0"/>
</g>
<g clip-path="url(#clip1_2224_4173)">
<path d="M523.38 17H0V67.8497C0.302682 67.8497 0.562123 67.8497 0.864805 67.8497C17.5555 67.8497 25.9874 74.26 34.1598 80.4105C42.3754 86.6476 50.1587 92.5382 66.1143 92.5382C82.0268 92.5382 89.81 86.6476 98.0689 80.4105C106.241 74.2167 114.673 67.8497 131.364 67.8497C148.055 67.8497 156.486 74.26 164.659 80.4105C172.875 86.6476 180.658 92.5382 196.613 92.5382C212.569 92.5382 220.309 86.6476 228.568 80.4105C236.74 74.2167 245.172 67.8497 261.863 67.8497C278.554 67.8497 286.986 74.26 295.158 80.4105C303.374 86.6476 311.157 92.5382 327.113 92.5382C343.025 92.5382 350.808 86.6476 359.067 80.4105C367.239 74.2167 375.671 67.8497 392.362 67.8497C409.053 67.8497 417.485 74.26 425.657 80.4105C433.873 86.6476 441.656 92.5382 457.612 92.5382C473.524 92.5382 481.307 86.6476 489.566 80.4105C497.739 74.2167 506.17 67.8497 522.861 67.8497C523.121 67.8497 523.337 67.8497 523.596 67.8497C539.811 68.0229 548.113 74.3466 556.156 80.4105C564.372 86.6476 572.155 92.5382 588.111 92.5382C604.023 92.5382 611.806 86.6476 620.065 80.4105C628.238 74.2167 636.669 67.8497 653.36 67.8497C670.051 67.8497 678.483 74.26 686.655 80.4105C694.871 86.6476 702.654 92.5382 718.61 92.5382C734.565 92.5382 742.305 86.6476 750.564 80.4105C758.477 74.4333 766.65 68.2395 782.303 67.8497V17H523.38Z" fill="white"/>
</g>
<g clip-path="url(#clip2_2224_4173)">
<path d="M523.38 0H0V50.8497C0.302682 50.8497 0.562123 50.8497 0.864805 50.8497C17.5555 50.8497 25.9874 57.26 34.1598 63.4105C42.3754 69.6476 50.1587 75.5382 66.1143 75.5382C82.0268 75.5382 89.81 69.6476 98.0689 63.4105C106.241 57.2167 114.673 50.8497 131.364 50.8497C148.055 50.8497 156.486 57.26 164.659 63.4105C172.875 69.6476 180.658 75.5382 196.613 75.5382C212.569 75.5382 220.309 69.6476 228.568 63.4105C236.74 57.2167 245.172 50.8497 261.863 50.8497C278.554 50.8497 286.986 57.26 295.158 63.4105C303.374 69.6476 311.157 75.5382 327.113 75.5382C343.025 75.5382 350.808 69.6476 359.067 63.4105C367.239 57.2167 375.671 50.8497 392.362 50.8497C409.053 50.8497 417.485 57.26 425.657 63.4105C433.873 69.6476 441.656 75.5382 457.612 75.5382C473.524 75.5382 481.307 69.6476 489.566 63.4105C497.739 57.2167 506.17 50.8497 522.861 50.8497C523.121 50.8497 523.337 50.8497 523.596 50.8497C539.811 51.0229 548.113 57.3466 556.156 63.4105C564.372 69.6476 572.155 75.5382 588.111 75.5382C604.023 75.5382 611.806 69.6476 620.065 63.4105C628.238 57.2167 636.669 50.8497 653.36 50.8497C670.051 50.8497 678.483 57.26 686.655 63.4105C694.871 69.6476 702.654 75.5382 718.61 75.5382C734.565 75.5382 742.305 69.6476 750.564 63.4105C758.477 57.4333 766.65 51.2395 782.303 50.8497V0H523.38Z" fill="#204379"/>
</g>
<defs>
<clipPath id="clip0_2224_4173">
<rect width="782" height="75.5382" fill="white" transform="translate(0 34)"/>
</clipPath>
<clipPath id="clip1_2224_4173">
<rect width="782" height="75.5382" fill="white" transform="translate(0 17)"/>
</clipPath>
<clipPath id="clip2_2224_4173">
<rect width="782" height="75.5382" fill="white"/>
</clipPath>
</defs>
</svg>
